<svg width="1439" height="162" viewBox="0 0 1439 162" fill="none" xmlns="http://www.w3.org/2000/svg">
<path d="M0 0H39.9722C79.9444 0 159.889 2.27259e-06 239.833 20.9096C319.778 42.0435 399.722 83.5264 479.667 86.7217C559.611 89.6927 639.556 53.8156 719.5 59.8138C799.444 65.5878 879.389 113.798 959.333 113.629C1039.28 113.798 1119.22 65.5878 1199.17 53.8156C1279.11 42.0435 1359.06 65.5878 1399.03 77.7524L1439 89.6927V161.447H1399.03C1359.06 161.447 1279.11 161.447 1199.17 161.447C1119.22 161.447 1039.28 161.447 959.333 161.447C879.389 161.447 799.444 161.447 719.5 161.447C639.556 161.447 559.611 161.447 479.667 161.447C399.722 161.447 319.778 161.447 239.833 161.447C159.889 161.447 79.9444 161.447 39.9722 161.447H0V0Z" fill="url(#paint0_linear_13_4)" fill-opacity="0.6"/>
<defs>
<linearGradient id="paint0_linear_13_4" x1="720" y1="161.447" x2="992.262" y2="-130.373" gradientUnits="userSpaceOnUse">
<stop stop-color="#421032"/>
<stop offset="1" stop-color="#E7008A"/>
</linearGradient>
</defs>
</svg>
