<svg width="1439" height="256" viewBox="0 0 1439 256" fill="none" xmlns="http://www.w3.org/2000/svg">
<path d="M0 0H39.9722C79.9444 0 159.889 3.8147e-06 239.833 33.1375C319.778 66.6303 399.722 132.372 479.667 137.436C559.611 142.145 639.556 85.2868 719.5 94.7927C799.444 103.943 879.389 180.346 959.333 180.079C1039.28 180.346 1119.22 103.943 1199.17 85.2868C1279.11 66.6303 1359.06 103.943 1399.03 123.222L1439 142.145V255.86H1399.03C1359.06 255.86 1279.11 255.86 1199.17 255.86C1119.22 255.86 1039.28 255.86 959.333 255.86C879.389 255.86 799.444 255.86 719.5 255.86C639.556 255.86 559.611 255.86 479.667 255.86C399.722 255.86 319.778 255.86 239.833 255.86C159.889 255.86 79.9444 255.86 39.9722 255.86H0V0Z" fill="url(#paint0_linear_13_6)" fill-opacity="0.2"/>
<defs>
<linearGradient id="paint0_linear_13_6" x1="720" y1="255.86" x2="1207.55" y2="-23.4709" gradientUnits="userSpaceOnUse">
<stop stop-color="#421032"/>
<stop offset="1" stop-color="#E7008A"/>
</linearGradient>
</defs>
</svg>
