<svg width="1439" height="209" viewBox="0 0 1439 209" fill="none" xmlns="http://www.w3.org/2000/svg">
<path d="M0 0.206787H39.9722C79.9444 0.206787 159.889 0.20679 239.833 27.2303C319.778 54.5437 399.722 108.156 479.667 112.286C559.611 116.125 639.556 69.758 719.5 77.5101C799.444 84.9723 879.389 147.279 959.333 147.061C1039.28 147.279 1119.22 84.9723 1199.17 69.758C1279.11 54.5437 1359.06 84.9723 1399.03 100.694L1439 116.125V208.86H1399.03C1359.06 208.86 1279.11 208.86 1199.17 208.86C1119.22 208.86 1039.28 208.86 959.333 208.86C879.389 208.86 799.444 208.86 719.5 208.86C639.556 208.86 559.611 208.86 479.667 208.86C399.722 208.86 319.778 208.86 239.833 208.86C159.889 208.86 79.9444 208.86 39.9722 208.86H0V0.206787Z" fill="url(#paint0_linear_13_5)" fill-opacity="0.4"/>
<defs>
<linearGradient id="paint0_linear_13_5" x1="720" y1="208.86" x2="1112.64" y2="-89.6992" gradientUnits="userSpaceOnUse">
<stop stop-color="#421032"/>
<stop offset="1" stop-color="#E7008A"/>
</linearGradient>
</defs>
</svg>
